<svg class="iconify iconify--logos" aria-hidden="true" role="img"  height="90" viewBox="0 0 191 45" xmlns="http://www.w3.org/2000/svg">
  <path d="M16.0276 34.5842C13.6346 34.539 11.0078 32.4911 9.29211 30.7303C9.08139 31.0915  8.65997 32.0035 8.65997 32.762C11.4593 35.5613 13.5091 36.972 16.8051 36.972C19.4419 36.972  22.1901 35.5764 23.1082 34.7937L25.3206 37.1416L26.9008 35.5162L24.8691 33.1683C27.2448  30.1417 27.6868 25.8613 25.8566 22.2008C24.1404 18.7685 20.7828 16.2145 14.1036 17.4268C20.5257  17.4268 27.1893 23.6724 23.3339 31.1366L18.7729 26.2734L21.6182 23.9125L18.5124 23.1604L12.8724  28.084L14.5747 29.9626L17.058 27.7051C18.2258 28.9306 20.2057 31.0537 21.7166 32.734C20.1815  34.0434 18.4206 34.6294 16.0276 34.5842Z" fill="#F13737" />
  <path d="M12.1406 8.28906H31.0469L30.3438 11.6484H15.2461L9.89453 37H6.04688L12.1406 8.28906Z" fill="#F13737" />
</svg>
